<?xml version="1.0" encoding="UTF-8"?>
<svg version="1.1" xmlns="http://www.w3.org/2000/svg" width="512" height="512">
<path d="M0 0 C2.6639168 2.40623548 5.26566355 4.86668447 7.8671875 7.33984375 C9.19492716 8.47144005 10.52788423 9.59695756 11.8671875 10.71484375 C44.60491443 39.30177503 62.11357013 81.71822308 70.1796875 123.40234375 C70.32680176 124.16047363 70.47391602 124.91860352 70.62548828 125.69970703 C73.42177394 141.10707748 74.24085912 156.27006069 74.1796875 171.90234375 C74.17695328 173.35475967 74.17695328 173.35475967 74.17416382 174.83651733 C74.12761476 189.53889345 73.62820752 203.85917492 70.8671875 218.33984375 C70.69026367 219.28972168 70.51333984 220.23959961 70.33105469 221.21826172 C66.45199507 241.53475274 60.81072426 260.68124054 51.8671875 279.33984375 C51.5666748 279.98179687 51.26616211 280.62375 50.95654297 281.28515625 C46.95385624 289.83137291 42.34314164 297.65915151 36.8671875 305.33984375 C35.83464844 306.80357422 35.83464844 306.80357422 34.78125 308.296875 C29.03901984 316.20539777 22.63628689 323.31602755 15.8671875 330.33984375 C15.35720215 330.87174316 14.8472168 331.40364258 14.32177734 331.95166016 C-13.31767393 360.64504665 -48.66943812 376.81716229 -87.2578125 385.08984375 C-88.17393311 385.28860107 -89.09005371 385.4873584 -90.03393555 385.69213867 C-106.45476701 389.03943442 -122.73079014 389.68822937 -139.4440918 389.65551758 C-142.79834762 389.6523644 -146.1517121 389.67588997 -149.50585938 389.70117188 C-167.7511785 389.75479742 -185.73969122 388.16804199 -203.5703125 384.15234375 C-204.96080811 383.8426062 -204.96080811 383.8426062 -206.37939453 383.52661133 C-241.62577143 375.31308911 -272.41296033 359.06101177 -298.45996094 333.94970703 C-299.86383697 332.59869148 -301.28185783 331.26239547 -302.703125 329.9296875 C-335.1292144 298.84015734 -352.13285617 254.062397 -358.1328125 210.33984375 C-358.2872583 209.23648682 -358.2872583 209.23648682 -358.44482422 208.11083984 C-363.88231603 167.26522602 -359.9132156 124.15826271 -346.1328125 85.33984375 C-345.69453125 84.09589844 -345.25625 82.85195312 -344.8046875 81.5703125 C-336.11850008 58.53194759 -323.16857034 36.49088054 -305.76757812 18.98486328 C-303.96255756 17.1685209 -302.18091236 15.33064919 -300.3984375 13.4921875 C-288.41999626 1.22239917 -275.96520734 -8.09986226 -261.1328125 -16.66015625 C-259.9277002 -17.36325928 -259.9277002 -17.36325928 -258.69824219 -18.08056641 C-185.23768302 -60.43686408 -65.76182266 -56.90846461 0 0 Z " fill="#FEAF2E" transform="translate(399.1328125,79.66015625)"/>
<path d="M0 0 C1.17550415 -0.00833862 1.17550415 -0.00833862 2.37475586 -0.0168457 C18.22451521 0.17792605 31.79294333 6.69950274 43.3125 17.3125 C51.9099588 26.1318287 56.21051991 36.55431872 59.3125 48.3125 C59.49683594 48.91449219 59.68117188 49.51648438 59.87109375 50.13671875 C62.94236221 65.27562612 58.56920836 80.60100946 50.3125 93.3125 C42.32418277 105.16959866 31.73602511 112.63118662 18.3125 117.3125 C17.01119141 117.85970703 17.01119141 117.85970703 15.68359375 118.41796875 C1.59594126 122.15617549 -15.60263658 120.44627352 -28.2578125 113.359375 C-42.91002036 104.70160512 -52.76006565 92.85554127 -58.1875 76.6875 C-62.44294248 59.79871264 -60.16264958 42.988669 -51.4453125 27.94140625 C-42.37667484 14.37875482 -29.21618158 4.45602067 -13.234375 0.8125 C-8.80609145 0.18824857 -4.46800368 0.02651505 0 0 Z " fill="#412B33" transform="translate(176.6875,190.6875)"/>
<path d="M0 0 C0.85142578 -0.01224609 1.70285156 -0.02449219 2.58007812 -0.03710938 C18.455691 -0.07338267 31.35714111 5.97321266 42.875 16.6875 C43.638125 17.5125 44.40125 18.3375 45.1875 19.1875 C45.64511719 19.63996094 46.10273438 20.09242188 46.57421875 20.55859375 C58.65044455 33.26874216 60.92854685 48.8340457 60.62890625 65.5859375 C60.05456874 78.24296798 55.13029897 88.37687387 47.1875 98.1875 C46.57132812 99.00863281 45.95515625 99.82976562 45.3203125 100.67578125 C38.41167324 108.81177949 29.11829938 113.72423803 19.1875 117.1875 C18.34058594 117.55101562 17.49367188 117.91453125 16.62109375 118.2890625 C3.38668119 121.75199184 -13.8562678 121.07456942 -25.8125 114.1875 C-26.75609375 113.67960937 -27.6996875 113.17171875 -28.671875 112.6484375 C-43.05364418 104.26569359 -52.99311372 91.0631254 -57.8125 75.1875 C-60.47285969 62.60779919 -60.39055743 47.86492864 -54.8125 36.1875 C-54.38839844 35.259375 -53.96429688 34.33125 -53.52734375 33.375 C-45.67683186 17.63024077 -32.27726212 6.82531546 -15.8125 1.1875 C-10.5693721 -0.02301353 -5.35393321 0.00399846 0 0 Z " fill="#412B33" transform="translate(330.8125,190.8125)"/>
<path d="M0 0 C14.76904513 -1.51047052 29.18591542 4.86221372 40.546875 14.0625 C43.11317086 16.30217639 45.56781109 18.61581482 48 21 C48.70125 21.66515625 49.4025 22.3303125 50.125 23.015625 C62.76493478 35.95180825 67.25188039 53.24863323 67.17871094 70.86621094 C66.87929274 89.31892683 59.51706869 105.41994535 46.75 118.75 C32.20041878 132.64633472 14.41176467 138.47503676 -5.46875 138.1171875 C-7.21671875 138.05917969 -7.21671875 138.05917969 -9 138 C-9.8146875 137.98195313 -10.629375 137.96390625 -11.46875 137.9453125 C-26.66258475 136.98152447 -42.70009022 127.97809314 -53 117 C-64.18907202 103.96530785 -71.87315781 88.46315623 -71 71 C-69.35875462 74.11436318 -68.03156307 77.33062656 -66.69213867 80.58374023 C-63.6432348 87.8755539 -60.52035172 94.22158305 -55 100 C-53.92492187 101.13501953 -53.92492187 101.13501953 -52.828125 102.29296875 C-46.32700912 108.63474355 -39.28975278 112.45426451 -31 116 C-30.12601562 116.38285156 -29.25203125 116.76570313 -28.3515625 117.16015625 C-11.94314089 121.27182367 5.61061446 118.73613464 20.01171875 110.21875 C24.46800382 107.2522303 28.41199399 103.98667334 32 100 C32.70189453 99.28650391 32.70189453 99.28650391 33.41796875 98.55859375 C43.60389017 87.69186524 47.58302271 73.7705669 47.5 59.25 C47.49141968 57.51737915 47.49141968 57.51737915 47.48266602 55.74975586 C47.30247994 47.15967288 46.37230802 40.53130057 42 33 C41.4225 31.99839844 40.845 30.99679688 40.25 29.96484375 C31.60593792 15.82509564 20.50169386 7.41881933 5 2 C3.3419612 1.62610669 1.67713659 1.27586546 0 1 C0 0.67 0 0.34 0 0 Z " fill="#FCFCFB" transform="translate(343,191)"/>
<path d="M0 0 C1.85625 0.0309375 1.85625 0.0309375 3.75 0.0625 C0.5779568 2.17719546 -2.12493001 3.04063051 -5.75 4.1875 C-12.89743686 6.60863046 -18.46318444 10.18342022 -24.25 15.0625 C-24.89453125 15.58328125 -25.5390625 16.1040625 -26.203125 16.640625 C-36.25737195 25.60792633 -42.79107691 40.60653221 -43.625 53.83203125 C-44.24924785 70.95635909 -40.38449735 85.96687096 -29.0625 99.25 C-17.74496159 111.17315919 -4.53266852 117.98483734 11.91162109 118.45678711 C29.81724538 118.70235471 42.91763737 114.88720099 56.4375 102.625 C57.5821875 101.3565625 57.5821875 101.3565625 58.75 100.0625 C59.29140625 99.52496094 59.8328125 98.98742187 60.390625 98.43359375 C70.85878318 87.53305512 75.15849515 72.66047428 74.97412109 57.86010742 C74.84549938 52.8769174 74.45460508 47.99473553 73.75 43.0625 C79.77713 49.08963 79.11764896 60.41198181 79.1875 68.375 C79.07793612 88.41874469 72.42003482 104.8841884 58.5078125 119.40234375 C43.4918852 133.80286419 25.00458848 139.67401958 4.49609375 139.33984375 C-11.43289949 138.69342186 -25.52560906 131.51724454 -37.25 121.0625 C-37.96027344 120.43472656 -38.67054687 119.80695313 -39.40234375 119.16015625 C-52.56121519 106.80950724 -60.03166521 88.68453267 -60.60424805 70.75439453 C-60.79537666 50.5667155 -53.11383023 33.45617119 -39.23828125 18.9609375 C-29.62014788 9.75170813 -13.76163004 -0.2293605 0 0 Z " fill="#FDFCFA" transform="translate(161.25,190.9375)"/>
<path d="M0 0 C2.17282551 1.65820894 4.1793616 3.39874741 6.1875 5.25 C7.074375 5.86875 7.96125 6.4875 8.875 7.125 C13.15400726 11.05706072 16.63285817 15.23908719 17.70703125 21.0703125 C17.92226617 26.92151361 17.22680776 30.76188026 13.1875 35.25 C8.91914954 39.00097465 4.98690059 39.61285438 -0.5390625 39.5234375 C-5.73537836 38.89845106 -8.64148323 35.54860504 -11.75 31.6875 C-15.67349754 27.01141342 -19.10815204 25.50786393 -25.08984375 24.9375 C-32.08643975 24.69855542 -38.21223358 24.69427765 -43.8125 29.25 C-45.72092948 31.24106251 -47.47929549 33.26796507 -49.171875 35.4453125 C-51.58455304 38.09925834 -53.6406819 39.08370238 -57.1796875 39.5859375 C-62.91787931 39.67531743 -66.37769321 39.26244424 -70.8125 35.25 C-74.7368199 30.9125938 -75.44124569 27.3748081 -75.203125 21.7109375 C-73.95342104 13.83780257 -67.56962635 7.51542984 -61.5625 2.75 C-44.30378346 -9.73547247 -18.35807429 -11.42280178 0 0 Z " fill="#412B31" transform="translate(284.8125,367.75)"/>
<path d="M0 0 C6.21423336 4.36922444 11.32386888 10.30685906 13.39453125 17.68359375 C14.12412235 24.02061358 13.72888442 30.11807489 10.39453125 35.68359375 C6.85753735 39.5772593 2.75387645 42.379884 -2.48828125 43.0546875 C-11.438269 43.2380005 -17.87181225 41.88035159 -24.671875 35.8515625 C-31.25693484 28.88157223 -33.28432144 22.12229065 -33.01953125 12.58984375 C-32.15630058 6.53094169 -29.23022888 2.97677018 -24.54296875 -0.75390625 C-16.46102898 -5.05281038 -7.89602643 -4.38944461 0 0 Z " fill="#FDFCFC" transform="translate(211.60546875,209.31640625)"/>
<path d="M0 0 C3.51518838 2.51479672 6.07716374 5.20349768 8.484375 8.77734375 C9.0825 9.66421875 9.680625 10.55109375 10.296875 11.46484375 C12.44178608 17.44801677 13.71308125 24.61660483 11.359375 30.71484375 C7.93715089 36.30447646 3.96276548 40.17909676 -2.515625 41.77734375 C-10.55963481 42.90177523 -16.86837096 41.46552633 -23.515625 36.77734375 C-28.97606996 31.86191495 -33.0012721 26.42580807 -33.828125 18.953125 C-34.09263602 12.36514749 -33.50429675 7.15620403 -29.515625 1.77734375 C-20.89012085 -6.8481604 -9.78295277 -5.87253521 0 0 Z " fill="#FDFDFD" transform="translate(367.515625,210.22265625)"/>
<path d="M0 0 C4.4346858 3.6722556 6.17905172 7.39533435 7.875 12.75 C10.21722709 19.53621572 13.03388915 24.7161522 18 30 C18.804375 30.9075 19.60875 31.815 20.4375 32.75 C30.99427321 42.01936184 42.66412609 45.00619344 56.37109375 45.5234375 C61.08384911 46.14233541 63.6804437 47.6804437 67 51 C67.4375 53.8125 67.4375 53.8125 67 57 C64.39558889 60.31868057 62.92596026 61.83224558 58.72265625 62.59375 C38.6441552 62.07946609 20.4887567 56.53602834 6 42 C-1.70317629 33.19444944 -10.02226162 19.94133878 -10.4375 7.875 C-10 4 -10 4 -7.8125 1.5 C-4.72015 -0.14925334 -3.4172248 -0.76887558 0 0 Z " fill="#432C31" transform="translate(344,113)"/>
<path d="M0 0 C1.87890625 0.6015625 1.87890625 0.6015625 3.94140625 2.7890625 C6.31784405 9.91837591 1.73642511 18.10786925 -1.12109375 24.6015625 C-9.01525694 39.98506 -19.20608544 49.56997367 -35.12109375 56.6015625 C-35.75144531 56.89804688 -36.38179687 57.19453125 -37.03125 57.5 C-46.01701185 61.35376623 -58.44688762 63.18371546 -68.12109375 61.6015625 C-71.37109375 59.5390625 -71.37109375 59.5390625 -73.12109375 56.6015625 C-73.26508319 52.49786347 -72.93667656 50.49114296 -70.140625 47.44140625 C-65.99820841 44.91737234 -62.44807544 44.94251888 -57.68359375 44.7265625 C-45.54439123 43.85805593 -33.87137139 40.33943154 -24.99609375 31.48046875 C-19.74318529 24.99093809 -16.33001062 18.28380528 -13.12109375 10.6015625 C-12.39757582 8.87002469 -11.66914384 7.14052346 -10.93359375 5.4140625 C-10.51013672 4.37185547 -10.51013672 4.37185547 -10.078125 3.30859375 C-7.61513828 -1.08457032 -4.30994251 -0.682606 0 0 Z " fill="#442D31" transform="translate(174.12109375,113.3984375)"/>
<path d="M0 0 C-2.85584773 1.90389849 -4.9311762 2.69462177 -8.1875 3.625 C-9.08855469 3.88539063 -9.98960937 4.14578125 -10.91796875 4.4140625 C-11.94857422 4.70410156 -11.94857422 4.70410156 -13 5 C-12.67 3.68 -12.34 2.36 -12 1 C-8.0186217 -0.3271261 -4.14954773 -0.06915913 0 0 Z " fill="#EDE1D3" transform="translate(165,191)"/>
</svg>
